<mxfile host="app.diagrams.net" modified="2022-07-28T14:26:53.783Z" agent="5.0 (Macintosh; Intel Mac OS X 10_15_7) AppleWebKit/537.36 (KHTML, like Gecko) Chrome/103.0.0.0 Safari/537.36" etag="QXjq5jQvBiKuMwRCsi2y" version="20.2.0" type="github">
  <diagram id="q7Endfqhxulxnqz8gKcs" name="Page-1">
    <mxGraphModel dx="961" dy="588" grid="1" gridSize="10" guides="1" tooltips="1" connect="1" arrows="1" fold="1" page="1" pageScale="1" pageWidth="850" pageHeight="1100" math="0" shadow="0">
      <root>
        <mxCell id="0" />
        <mxCell id="1" parent="0" />
        <mxCell id="l6QgvKTfLtVlL3AsR-WV-20" style="edgeStyle=orthogonalEdgeStyle;curved=1;orthogonalLoop=1;jettySize=auto;html=1;" parent="1" source="l6QgvKTfLtVlL3AsR-WV-1" target="l6QgvKTfLtVlL3AsR-WV-2" edge="1">
          <mxGeometry relative="1" as="geometry" />
        </mxCell>
        <mxCell id="l6QgvKTfLtVlL3AsR-WV-1" value="Awe" style="text;html=1;strokeColor=none;fillColor=none;align=center;verticalAlign=middle;whiteSpace=wrap;rounded=0;" parent="1" vertex="1">
          <mxGeometry x="350" y="90" width="60" height="30" as="geometry" />
        </mxCell>
        <mxCell id="l6QgvKTfLtVlL3AsR-WV-21" style="edgeStyle=orthogonalEdgeStyle;curved=1;orthogonalLoop=1;jettySize=auto;html=1;" parent="1" source="l6QgvKTfLtVlL3AsR-WV-2" target="l6QgvKTfLtVlL3AsR-WV-3" edge="1">
          <mxGeometry relative="1" as="geometry" />
        </mxCell>
        <mxCell id="l6QgvKTfLtVlL3AsR-WV-2" value="Curiosity" style="text;html=1;strokeColor=none;fillColor=none;align=center;verticalAlign=middle;whiteSpace=wrap;rounded=0;" parent="1" vertex="1">
          <mxGeometry x="600" y="220" width="60" height="30" as="geometry" />
        </mxCell>
        <mxCell id="l6QgvKTfLtVlL3AsR-WV-46" style="edgeStyle=orthogonalEdgeStyle;curved=1;orthogonalLoop=1;jettySize=auto;html=1;entryX=1;entryY=0.75;entryDx=0;entryDy=0;" parent="1" source="l6QgvKTfLtVlL3AsR-WV-3" target="l6QgvKTfLtVlL3AsR-WV-4" edge="1">
          <mxGeometry relative="1" as="geometry">
            <Array as="points">
              <mxPoint x="580" y="590" />
              <mxPoint x="410" y="590" />
              <mxPoint x="410" y="633" />
            </Array>
          </mxGeometry>
        </mxCell>
        <mxCell id="l6QgvKTfLtVlL3AsR-WV-50" style="edgeStyle=orthogonalEdgeStyle;curved=1;orthogonalLoop=1;jettySize=auto;html=1;strokeColor=#00FF00;" parent="1" source="l6QgvKTfLtVlL3AsR-WV-3" target="l6QgvKTfLtVlL3AsR-WV-8" edge="1">
          <mxGeometry relative="1" as="geometry" />
        </mxCell>
        <mxCell id="l6QgvKTfLtVlL3AsR-WV-3" value="Surprise" style="text;html=1;strokeColor=none;fillColor=none;align=center;verticalAlign=middle;whiteSpace=wrap;rounded=0;" parent="1" vertex="1">
          <mxGeometry x="560" y="405" width="60" as="geometry" />
        </mxCell>
        <mxCell id="l6QgvKTfLtVlL3AsR-WV-23" style="edgeStyle=orthogonalEdgeStyle;curved=1;orthogonalLoop=1;jettySize=auto;html=1;strokeColor=#00FF00;" parent="1" source="l6QgvKTfLtVlL3AsR-WV-4" target="l6QgvKTfLtVlL3AsR-WV-9" edge="1">
          <mxGeometry relative="1" as="geometry" />
        </mxCell>
        <mxCell id="AYosdrnLpDTpRpoJzwx4-12" style="edgeStyle=orthogonalEdgeStyle;curved=1;orthogonalLoop=1;jettySize=auto;html=1;entryX=0.117;entryY=1.133;entryDx=0;entryDy=0;entryPerimeter=0;" edge="1" parent="1" source="l6QgvKTfLtVlL3AsR-WV-4" target="l6QgvKTfLtVlL3AsR-WV-5">
          <mxGeometry relative="1" as="geometry" />
        </mxCell>
        <mxCell id="l6QgvKTfLtVlL3AsR-WV-4" value="Play" style="text;html=1;strokeColor=none;fillColor=none;align=center;verticalAlign=middle;whiteSpace=wrap;rounded=0;" parent="1" vertex="1">
          <mxGeometry x="320" y="610" width="80" height="30" as="geometry" />
        </mxCell>
        <mxCell id="l6QgvKTfLtVlL3AsR-WV-17" style="edgeStyle=orthogonalEdgeStyle;orthogonalLoop=1;jettySize=auto;html=1;curved=1;" parent="1" source="l6QgvKTfLtVlL3AsR-WV-5" target="l6QgvKTfLtVlL3AsR-WV-7" edge="1">
          <mxGeometry relative="1" as="geometry">
            <Array as="points">
              <mxPoint x="90" y="270" />
              <mxPoint x="70" y="270" />
              <mxPoint x="70" y="120" />
              <mxPoint x="195" y="120" />
            </Array>
          </mxGeometry>
        </mxCell>
        <mxCell id="l6QgvKTfLtVlL3AsR-WV-5" value="Competence" style="text;html=1;strokeColor=none;fillColor=none;align=center;verticalAlign=middle;whiteSpace=wrap;rounded=0;" parent="1" vertex="1">
          <mxGeometry x="60" y="330" width="60" height="30" as="geometry" />
        </mxCell>
        <mxCell id="l6QgvKTfLtVlL3AsR-WV-36" style="edgeStyle=orthogonalEdgeStyle;curved=1;orthogonalLoop=1;jettySize=auto;html=1;entryX=0;entryY=0.75;entryDx=0;entryDy=0;" parent="1" source="l6QgvKTfLtVlL3AsR-WV-7" target="l6QgvKTfLtVlL3AsR-WV-1" edge="1">
          <mxGeometry relative="1" as="geometry" />
        </mxCell>
        <mxCell id="l6QgvKTfLtVlL3AsR-WV-52" style="edgeStyle=orthogonalEdgeStyle;curved=1;orthogonalLoop=1;jettySize=auto;html=1;entryX=0.288;entryY=-0.133;entryDx=0;entryDy=0;entryPerimeter=0;strokeColor=#00FF00;" parent="1" source="l6QgvKTfLtVlL3AsR-WV-7" target="l6QgvKTfLtVlL3AsR-WV-12" edge="1">
          <mxGeometry relative="1" as="geometry" />
        </mxCell>
        <mxCell id="l6QgvKTfLtVlL3AsR-WV-7" value="Creation" style="text;html=1;align=center;verticalAlign=middle;resizable=0;points=[];autosize=1;strokeColor=none;fillColor=none;" parent="1" vertex="1">
          <mxGeometry x="160" y="80" width="70" height="30" as="geometry" />
        </mxCell>
        <mxCell id="l6QgvKTfLtVlL3AsR-WV-27" style="edgeStyle=orthogonalEdgeStyle;curved=1;orthogonalLoop=1;jettySize=auto;html=1;entryX=1.014;entryY=0.633;entryDx=0;entryDy=0;entryPerimeter=0;fillColor=#fff2cc;strokeColor=#FFD966;startArrow=none;" parent="1" target="l6QgvKTfLtVlL3AsR-WV-9" edge="1">
          <mxGeometry relative="1" as="geometry">
            <Array as="points">
              <mxPoint x="480" y="402" />
              <mxPoint x="480" y="412" />
              <mxPoint x="440" y="412" />
              <mxPoint x="440" y="430" />
              <mxPoint x="450" y="430" />
              <mxPoint x="450" y="459" />
            </Array>
            <mxPoint x="490" y="402" as="sourcePoint" />
          </mxGeometry>
        </mxCell>
        <mxCell id="l6QgvKTfLtVlL3AsR-WV-41" style="edgeStyle=orthogonalEdgeStyle;curved=1;orthogonalLoop=1;jettySize=auto;html=1;strokeColor=#67AB9F;" parent="1" source="l6QgvKTfLtVlL3AsR-WV-8" target="l6QgvKTfLtVlL3AsR-WV-40" edge="1">
          <mxGeometry relative="1" as="geometry" />
        </mxCell>
        <mxCell id="l6QgvKTfLtVlL3AsR-WV-47" style="edgeStyle=orthogonalEdgeStyle;curved=1;orthogonalLoop=1;jettySize=auto;html=1;entryX=1;entryY=0.967;entryDx=0;entryDy=0;entryPerimeter=0;strokeColor=#EA6B66;" parent="1" source="l6QgvKTfLtVlL3AsR-WV-8" target="l6QgvKTfLtVlL3AsR-WV-15" edge="1">
          <mxGeometry relative="1" as="geometry">
            <Array as="points">
              <mxPoint x="540" y="395" />
              <mxPoint x="540" y="560" />
              <mxPoint x="295" y="560" />
            </Array>
          </mxGeometry>
        </mxCell>
        <mxCell id="l6QgvKTfLtVlL3AsR-WV-8" value="Conflict" style="text;html=1;align=center;verticalAlign=middle;resizable=0;points=[];autosize=1;strokeColor=none;fillColor=none;" parent="1" vertex="1">
          <mxGeometry x="450" y="380" width="60" height="30" as="geometry" />
        </mxCell>
        <mxCell id="l6QgvKTfLtVlL3AsR-WV-24" style="edgeStyle=orthogonalEdgeStyle;curved=1;orthogonalLoop=1;jettySize=auto;html=1;strokeColor=#FFD966;" parent="1" source="l6QgvKTfLtVlL3AsR-WV-9" target="l6QgvKTfLtVlL3AsR-WV-10" edge="1">
          <mxGeometry relative="1" as="geometry" />
        </mxCell>
        <mxCell id="AYosdrnLpDTpRpoJzwx4-4" style="edgeStyle=orthogonalEdgeStyle;orthogonalLoop=1;jettySize=auto;html=1;curved=1;" edge="1" parent="1" source="l6QgvKTfLtVlL3AsR-WV-9" target="AYosdrnLpDTpRpoJzwx4-1">
          <mxGeometry relative="1" as="geometry" />
        </mxCell>
        <mxCell id="l6QgvKTfLtVlL3AsR-WV-9" value="Learning" style="text;html=1;align=center;verticalAlign=middle;resizable=0;points=[];autosize=1;strokeColor=none;fillColor=none;" parent="1" vertex="1">
          <mxGeometry x="360" y="440" width="70" height="30" as="geometry" />
        </mxCell>
        <mxCell id="l6QgvKTfLtVlL3AsR-WV-29" style="edgeStyle=orthogonalEdgeStyle;curved=1;orthogonalLoop=1;jettySize=auto;html=1;strokeColor=#FFD966;" parent="1" source="l6QgvKTfLtVlL3AsR-WV-10" target="l6QgvKTfLtVlL3AsR-WV-11" edge="1">
          <mxGeometry relative="1" as="geometry">
            <Array as="points">
              <mxPoint x="300" y="315" />
            </Array>
          </mxGeometry>
        </mxCell>
        <mxCell id="l6QgvKTfLtVlL3AsR-WV-34" style="edgeStyle=orthogonalEdgeStyle;curved=1;orthogonalLoop=1;jettySize=auto;html=1;strokeColor=#EA6B66;" parent="1" source="l6QgvKTfLtVlL3AsR-WV-10" target="l6QgvKTfLtVlL3AsR-WV-16" edge="1">
          <mxGeometry relative="1" as="geometry" />
        </mxCell>
        <mxCell id="l6QgvKTfLtVlL3AsR-WV-44" style="edgeStyle=orthogonalEdgeStyle;curved=1;orthogonalLoop=1;jettySize=auto;html=1;entryX=0.367;entryY=1.1;entryDx=0;entryDy=0;entryPerimeter=0;strokeColor=#67AB9F;" parent="1" source="l6QgvKTfLtVlL3AsR-WV-10" target="l6QgvKTfLtVlL3AsR-WV-43" edge="1">
          <mxGeometry relative="1" as="geometry">
            <Array as="points">
              <mxPoint x="240" y="405" />
              <mxPoint x="240" y="470" />
              <mxPoint x="153" y="470" />
            </Array>
          </mxGeometry>
        </mxCell>
        <mxCell id="l6QgvKTfLtVlL3AsR-WV-51" style="edgeStyle=orthogonalEdgeStyle;curved=1;orthogonalLoop=1;jettySize=auto;html=1;entryX=0.75;entryY=1;entryDx=0;entryDy=0;strokeColor=#00FF00;" parent="1" source="l6QgvKTfLtVlL3AsR-WV-10" target="l6QgvKTfLtVlL3AsR-WV-5" edge="1">
          <mxGeometry relative="1" as="geometry" />
        </mxCell>
        <mxCell id="l6QgvKTfLtVlL3AsR-WV-10" value="Resolution" style="text;html=1;align=center;verticalAlign=middle;resizable=0;points=[];autosize=1;strokeColor=none;fillColor=none;" parent="1" vertex="1">
          <mxGeometry x="260" y="390" width="80" height="30" as="geometry" />
        </mxCell>
        <mxCell id="l6QgvKTfLtVlL3AsR-WV-26" style="edgeStyle=orthogonalEdgeStyle;curved=1;orthogonalLoop=1;jettySize=auto;html=1;strokeColor=#FFD966;" parent="1" source="l6QgvKTfLtVlL3AsR-WV-11" target="l6QgvKTfLtVlL3AsR-WV-8" edge="1">
          <mxGeometry relative="1" as="geometry" />
        </mxCell>
        <mxCell id="l6QgvKTfLtVlL3AsR-WV-28" style="edgeStyle=orthogonalEdgeStyle;curved=1;orthogonalLoop=1;jettySize=auto;html=1;strokeColor=#67AB9F;" parent="1" source="l6QgvKTfLtVlL3AsR-WV-11" target="l6QgvKTfLtVlL3AsR-WV-12" edge="1">
          <mxGeometry relative="1" as="geometry" />
        </mxCell>
        <mxCell id="l6QgvKTfLtVlL3AsR-WV-11" value="Homeostasis" style="text;html=1;align=center;verticalAlign=middle;resizable=0;points=[];autosize=1;strokeColor=none;fillColor=none;" parent="1" vertex="1">
          <mxGeometry x="350" y="300" width="90" height="30" as="geometry" />
        </mxCell>
        <mxCell id="l6QgvKTfLtVlL3AsR-WV-30" style="edgeStyle=orthogonalEdgeStyle;curved=1;orthogonalLoop=1;jettySize=auto;html=1;strokeColor=#7EA6E0;" parent="1" source="l6QgvKTfLtVlL3AsR-WV-16" target="l6QgvKTfLtVlL3AsR-WV-13" edge="1">
          <mxGeometry relative="1" as="geometry">
            <mxPoint x="180" y="140" as="targetPoint" />
            <Array as="points">
              <mxPoint x="198" y="310" />
              <mxPoint x="160" y="310" />
              <mxPoint x="160" y="250" />
              <mxPoint x="175" y="250" />
              <mxPoint x="175" y="175" />
            </Array>
          </mxGeometry>
        </mxCell>
        <mxCell id="l6QgvKTfLtVlL3AsR-WV-38" style="edgeStyle=orthogonalEdgeStyle;curved=1;orthogonalLoop=1;jettySize=auto;html=1;strokeColor=#67AB9F;" parent="1" source="l6QgvKTfLtVlL3AsR-WV-12" target="l6QgvKTfLtVlL3AsR-WV-37" edge="1">
          <mxGeometry relative="1" as="geometry" />
        </mxCell>
        <mxCell id="l6QgvKTfLtVlL3AsR-WV-12" value="Modularity" style="text;html=1;align=center;verticalAlign=middle;resizable=0;points=[];autosize=1;strokeColor=none;fillColor=none;" parent="1" vertex="1">
          <mxGeometry x="205" y="260" width="80" height="30" as="geometry" />
        </mxCell>
        <mxCell id="l6QgvKTfLtVlL3AsR-WV-49" value="" style="edgeStyle=orthogonalEdgeStyle;curved=1;orthogonalLoop=1;jettySize=auto;html=1;strokeColor=#7EA6E0;" parent="1" source="l6QgvKTfLtVlL3AsR-WV-13" target="l6QgvKTfLtVlL3AsR-WV-7" edge="1">
          <mxGeometry relative="1" as="geometry" />
        </mxCell>
        <mxCell id="l6QgvKTfLtVlL3AsR-WV-13" value="Blending" style="text;html=1;align=center;verticalAlign=middle;resizable=0;points=[];autosize=1;strokeColor=none;fillColor=none;" parent="1" vertex="1">
          <mxGeometry x="110" y="170" width="70" height="30" as="geometry" />
        </mxCell>
        <mxCell id="l6QgvKTfLtVlL3AsR-WV-33" style="edgeStyle=orthogonalEdgeStyle;curved=1;orthogonalLoop=1;jettySize=auto;html=1;strokeColor=#EA6B66;" parent="1" source="l6QgvKTfLtVlL3AsR-WV-14" target="l6QgvKTfLtVlL3AsR-WV-8" edge="1">
          <mxGeometry relative="1" as="geometry">
            <Array as="points">
              <mxPoint x="550" y="300" />
              <mxPoint x="480" y="300" />
            </Array>
          </mxGeometry>
        </mxCell>
        <mxCell id="l6QgvKTfLtVlL3AsR-WV-14" value="Decomposition" style="text;html=1;align=center;verticalAlign=middle;resizable=0;points=[];autosize=1;strokeColor=none;fillColor=none;" parent="1" vertex="1">
          <mxGeometry x="470" y="170" width="100" height="30" as="geometry" />
        </mxCell>
        <mxCell id="l6QgvKTfLtVlL3AsR-WV-32" style="edgeStyle=orthogonalEdgeStyle;curved=1;orthogonalLoop=1;jettySize=auto;html=1;strokeColor=#EA6B66;" parent="1" source="l6QgvKTfLtVlL3AsR-WV-12" target="l6QgvKTfLtVlL3AsR-WV-14" edge="1">
          <mxGeometry relative="1" as="geometry">
            <Array as="points">
              <mxPoint x="245" y="210" />
              <mxPoint x="520" y="210" />
            </Array>
          </mxGeometry>
        </mxCell>
        <mxCell id="l6QgvKTfLtVlL3AsR-WV-48" style="edgeStyle=orthogonalEdgeStyle;curved=1;orthogonalLoop=1;jettySize=auto;html=1;entryX=0;entryY=1;entryDx=0;entryDy=0;entryPerimeter=0;strokeColor=#EA6B66;" parent="1" source="l6QgvKTfLtVlL3AsR-WV-15" target="l6QgvKTfLtVlL3AsR-WV-10" edge="1">
          <mxGeometry relative="1" as="geometry" />
        </mxCell>
        <mxCell id="l6QgvKTfLtVlL3AsR-WV-15" value="Late-Binding" style="text;html=1;align=center;verticalAlign=middle;resizable=0;points=[];autosize=1;strokeColor=none;fillColor=none;" parent="1" vertex="1">
          <mxGeometry x="205" y="490" width="90" height="30" as="geometry" />
        </mxCell>
        <mxCell id="l6QgvKTfLtVlL3AsR-WV-35" style="edgeStyle=orthogonalEdgeStyle;curved=1;orthogonalLoop=1;jettySize=auto;html=1;strokeColor=#EA6B66;" parent="1" source="l6QgvKTfLtVlL3AsR-WV-16" target="l6QgvKTfLtVlL3AsR-WV-12" edge="1">
          <mxGeometry relative="1" as="geometry" />
        </mxCell>
        <mxCell id="l6QgvKTfLtVlL3AsR-WV-16" value="Mediation" style="text;html=1;align=center;verticalAlign=middle;resizable=0;points=[];autosize=1;strokeColor=none;fillColor=none;rounded=0;" parent="1" vertex="1">
          <mxGeometry x="180" y="330" width="80" height="30" as="geometry" />
        </mxCell>
        <mxCell id="l6QgvKTfLtVlL3AsR-WV-39" style="edgeStyle=orthogonalEdgeStyle;curved=1;orthogonalLoop=1;jettySize=auto;html=1;strokeColor=#67AB9F;" parent="1" source="l6QgvKTfLtVlL3AsR-WV-37" target="l6QgvKTfLtVlL3AsR-WV-8" edge="1">
          <mxGeometry relative="1" as="geometry" />
        </mxCell>
        <mxCell id="l6QgvKTfLtVlL3AsR-WV-37" value="Individuation" style="text;html=1;align=center;verticalAlign=middle;resizable=0;points=[];autosize=1;strokeColor=none;fillColor=none;" parent="1" vertex="1">
          <mxGeometry x="350" y="240" width="90" height="30" as="geometry" />
        </mxCell>
        <mxCell id="l6QgvKTfLtVlL3AsR-WV-42" style="edgeStyle=orthogonalEdgeStyle;curved=1;orthogonalLoop=1;jettySize=auto;html=1;entryX=0.25;entryY=1.1;entryDx=0;entryDy=0;entryPerimeter=0;strokeColor=#67AB9F;" parent="1" source="l6QgvKTfLtVlL3AsR-WV-40" target="l6QgvKTfLtVlL3AsR-WV-10" edge="1">
          <mxGeometry relative="1" as="geometry" />
        </mxCell>
        <mxCell id="l6QgvKTfLtVlL3AsR-WV-40" value="Negotiation" style="text;html=1;align=center;verticalAlign=middle;resizable=0;points=[];autosize=1;strokeColor=none;fillColor=none;" parent="1" vertex="1">
          <mxGeometry x="425" y="490" width="80" height="30" as="geometry" />
        </mxCell>
        <mxCell id="l6QgvKTfLtVlL3AsR-WV-45" style="edgeStyle=orthogonalEdgeStyle;curved=1;orthogonalLoop=1;jettySize=auto;html=1;entryX=0;entryY=0.533;entryDx=0;entryDy=0;entryPerimeter=0;strokeColor=#67AB9F;" parent="1" source="l6QgvKTfLtVlL3AsR-WV-43" target="l6QgvKTfLtVlL3AsR-WV-12" edge="1">
          <mxGeometry relative="1" as="geometry" />
        </mxCell>
        <mxCell id="l6QgvKTfLtVlL3AsR-WV-43" value="Cooperation" style="text;html=1;align=center;verticalAlign=middle;resizable=0;points=[];autosize=1;strokeColor=none;fillColor=none;" parent="1" vertex="1">
          <mxGeometry x="120" y="350" width="90" height="30" as="geometry" />
        </mxCell>
        <mxCell id="AYosdrnLpDTpRpoJzwx4-8" style="edgeStyle=orthogonalEdgeStyle;curved=1;orthogonalLoop=1;jettySize=auto;html=1;" edge="1" parent="1" source="AYosdrnLpDTpRpoJzwx4-2" target="AYosdrnLpDTpRpoJzwx4-3">
          <mxGeometry relative="1" as="geometry">
            <mxPoint x="350" y="360" as="targetPoint" />
            <Array as="points">
              <mxPoint x="360" y="370" />
              <mxPoint x="350" y="370" />
            </Array>
          </mxGeometry>
        </mxCell>
        <mxCell id="AYosdrnLpDTpRpoJzwx4-2" value="Deduction" style="text;html=1;align=center;verticalAlign=middle;resizable=0;points=[];autosize=1;strokeColor=none;fillColor=none;" vertex="1" parent="1">
          <mxGeometry x="350" y="330" width="80" height="30" as="geometry" />
        </mxCell>
        <mxCell id="AYosdrnLpDTpRpoJzwx4-5" style="edgeStyle=orthogonalEdgeStyle;curved=1;orthogonalLoop=1;jettySize=auto;html=1;entryX=0.114;entryY=-0.1;entryDx=0;entryDy=0;entryPerimeter=0;" edge="1" parent="1" source="AYosdrnLpDTpRpoJzwx4-3" target="l6QgvKTfLtVlL3AsR-WV-9">
          <mxGeometry relative="1" as="geometry" />
        </mxCell>
        <mxCell id="AYosdrnLpDTpRpoJzwx4-3" value="Abduction" style="text;html=1;align=center;verticalAlign=middle;resizable=0;points=[];autosize=1;strokeColor=none;fillColor=none;" vertex="1" parent="1">
          <mxGeometry x="310" y="380" width="80" height="30" as="geometry" />
        </mxCell>
        <mxCell id="AYosdrnLpDTpRpoJzwx4-11" style="edgeStyle=orthogonalEdgeStyle;curved=1;orthogonalLoop=1;jettySize=auto;html=1;" edge="1" parent="1" source="AYosdrnLpDTpRpoJzwx4-1" target="AYosdrnLpDTpRpoJzwx4-2">
          <mxGeometry relative="1" as="geometry" />
        </mxCell>
        <mxCell id="AYosdrnLpDTpRpoJzwx4-1" value="Induction" style="text;html=1;align=center;verticalAlign=middle;resizable=0;points=[];autosize=1;strokeColor=none;fillColor=none;" vertex="1" parent="1">
          <mxGeometry x="380" y="370" width="70" height="30" as="geometry" />
        </mxCell>
      </root>
    </mxGraphModel>
  </diagram>
</mxfile>
